<svg width="13" height="18" viewBox="0 0 13 18" fill="none" xmlns="http://www.w3.org/2000/svg">
<path d="M5.904 17.792C4.864 17.792 4.04 17.704 3.432 17.528C2.824 17.368 2.52 17.136 2.52 16.832C2.52 16.672 2.632 16.408 2.856 16.04C3.096 15.656 3.28 15.464 3.408 15.464C3.6 15.464 3.696 15.504 3.696 15.584C3.696 15.632 3.664 15.688 3.6 15.752C3.552 15.816 3.528 15.88 3.528 15.944C3.528 15.992 3.624 16.064 3.816 16.16C4.024 16.256 4.336 16.344 4.752 16.424C5.168 16.504 5.672 16.544 6.264 16.544C7.208 16.544 8.032 16.36 8.736 15.992C9.456 15.624 10.008 15.16 10.392 14.6C10.776 14.04 10.968 13.496 10.968 12.968C10.968 12.28 10.632 11.688 9.96 11.192C9.304 10.696 8.24 10.224 6.768 9.776C5.344 9.312 4.24 8.928 3.456 8.624C2.688 8.304 2.064 7.92 1.584 7.472C1.104 7.008 0.864 6.448 0.864 5.792C0.864 4.912 1.36 4.048 2.352 3.2C3.344 2.336 4.568 1.64 6.024 1.112C7.48 0.567999 8.832 0.295999 10.08 0.295999C10.72 0.295999 11.064 0.423999 11.112 0.68C11.16 0.935999 11.184 1.224 11.184 1.544C11.184 1.784 11.096 1.904 10.92 1.904C10.84 1.904 10.744 1.88 10.632 1.832C10.536 1.768 10.448 1.72 10.368 1.688C10.272 1.656 10.16 1.624 10.032 1.592C9.904 1.56 9.72 1.544 9.48 1.544C8.648 1.544 7.648 1.76 6.48 2.192C5.312 2.624 4.296 3.16 3.432 3.8C2.584 4.44 2.16 5.056 2.16 5.648C2.16 6.128 2.352 6.544 2.736 6.896C3.136 7.248 3.664 7.552 4.32 7.808C4.976 8.048 5.904 8.352 7.104 8.72C8.864 9.232 10.16 9.808 10.992 10.448C11.84 11.088 12.264 11.872 12.264 12.8C12.264 13.6 11.992 14.392 11.448 15.176C10.92 15.944 10.168 16.568 9.192 17.048C8.232 17.544 7.136 17.792 5.904 17.792Z" fill="black"/>
</svg>
